<?xml version="1.0" encoding="UTF-8" standalone="no"?>
<!DOCTYPE svg PUBLIC "-//W3C//DTD SVG 20010904//EN"
              "http://www.w3.org/TR/2001/REC-SVG-20010904/DTD/svg10.dtd">

<svg xmlns="http://www.w3.org/2000/svg"
     width="1in" height="1in"
     viewBox="0 0 90 90">
  <path fill="none" stroke="black" d="M 59.10,39.87 A 15.00,15.00 0 0,0 50.13,30.90" />
  <path fill="none" stroke="black" d="M 50.13,59.10 A 15.00,15.00 0 0,0 59.10,50.13" />
  <path fill="none" stroke="black" d="M 30.90,50.13 A 15.00,15.00 0 0,0 39.87,59.10" />
  <path fill="none" stroke="black" d="M 39.87,30.90 A 15.00,15.00 0 0,0 30.90,39.87" />
  <path fill="none" stroke="black" d="M 45.00,0.00 A 15.00,15.00 0 0,0 45.00,15.00" />
  <path fill="none" stroke="black" d="M 45.00,30.00 A 15.00,15.00 0 0,0 45.00,15.00" />
  <line fill="none" stroke="black" x1="34.39" y1="55.61" x2="55.61" y2="34.39" />
  <line fill="none" stroke="black" x1="34.39" y1="34.39" x2="55.61" y2="55.61" />
</svg>
