<?xml version="1.0" encoding="UTF-8" standalone="no"?>
<!DOCTYPE svg PUBLIC "-//W3C//DTD SVG 20010904//EN"
              "http://www.w3.org/TR/2001/REC-SVG-20010904/DTD/svg10.dtd">

<svg xmlns="http://www.w3.org/2000/svg"
     width="1in" height="1in"
     viewBox="0 0 90 90">
  <path fill="none" stroke="blue" d="M 59.10,39.87 A 15.00,15.00 0 0,0 50.13,30.90" />
  <path fill="none" stroke="blue" d="M 50.13,59.10 A 15.00,15.00 0 0,0 59.10,50.13" />
  <path fill="none" stroke="blue" d="M 30.90,50.13 A 15.00,15.00 0 0,0 39.87,59.10" />
  <path fill="none" stroke="blue" d="M 39.87,30.90 A 15.00,15.00 0 0,0 30.90,39.87" />
  <line fill="none" stroke="blue" x1="60.00" y1="45.00" x2="90.00" y2="45.00" />
  <line fill="none" stroke="blue" x1="75.00" y1="41.40" x2="90.00" y2="45.00" />
  <line fill="none" stroke="blue" x1="75.00" y1="48.60" x2="90.00" y2="45.00" />
  <line fill="none" stroke="blue" x1="45.00" y1="60.00" x2="45.00" y2="90.00" />
  <line fill="none" stroke="blue" x1="41.40" y1="75.00" x2="45.00" y2="90.00" />
  <line fill="none" stroke="blue" x1="48.60" y1="75.00" x2="45.00" y2="90.00" />
  <line fill="none" stroke="blue" x1="30.00" y1="45.00" x2="0.00" y2="45.00" />
  <line fill="none" stroke="blue" x1="15.00" y1="41.40" x2="0.00" y2="45.00" />
  <line fill="none" stroke="blue" x1="15.00" y1="48.60" x2="0.00" y2="45.00" />
  <line fill="none" stroke="blue" x1="45.00" y1="30.00" x2="45.00" y2="0.00" />
  <line fill="none" stroke="blue" x1="41.40" y1="15.00" x2="45.00" y2="0.00" />
  <line fill="none" stroke="blue" x1="48.60" y1="15.00" x2="45.00" y2="0.00" />
</svg>
