<?xml version="1.0" encoding="UTF-8" standalone="no"?>
<!DOCTYPE svg PUBLIC "-//W3C//DTD SVG 20010904//EN"
              "http://www.w3.org/TR/2001/REC-SVG-20010904/DTD/svg10.dtd">

<svg xmlns="http://www.w3.org/2000/svg"
     width="1in" height="1in"
     viewBox="0 0 90 90">
  <circle fill="blue" stroke="none" cx="45.00" cy="45.00" r="15.00" />
  <line fill="none" stroke="blue" x1="55.61" y1="34.39" x2="76.82" y2="13.18" />
  <line fill="none" stroke="blue" x1="34.39" y1="55.61" x2="13.18" y2="76.82" />
  <line fill="none" stroke="blue" x1="34.39" y1="34.39" x2="13.18" y2="13.18" />
  <line fill="none" stroke="blue" x1="55.61" y1="55.61" x2="76.82" y2="76.82" />
  <line fill="none" stroke="blue" x1="45.00" y1="30.00" x2="45.00" y2="0.00" />
  <line fill="none" stroke="blue" x1="41.40" y1="15.00" x2="45.00" y2="0.00" />
  <line fill="none" stroke="blue" x1="48.60" y1="15.00" x2="45.00" y2="0.00" />
  <line fill="none" stroke="blue" x1="60.00" y1="45.00" x2="90.00" y2="45.00" />
  <line fill="none" stroke="blue" x1="75.00" y1="41.40" x2="90.00" y2="45.00" />
  <line fill="none" stroke="blue" x1="75.00" y1="48.60" x2="90.00" y2="45.00" />
  <line fill="none" stroke="blue" x1="45.00" y1="60.00" x2="45.00" y2="90.00" />
  <line fill="none" stroke="blue" x1="41.40" y1="75.00" x2="45.00" y2="90.00" />
  <line fill="none" stroke="blue" x1="48.60" y1="75.00" x2="45.00" y2="90.00" />
  <line fill="none" stroke="blue" x1="30.00" y1="45.00" x2="0.00" y2="45.00" />
  <line fill="none" stroke="blue" x1="15.00" y1="41.40" x2="0.00" y2="45.00" />
  <line fill="none" stroke="blue" x1="15.00" y1="48.60" x2="0.00" y2="45.00" />
</svg>
