<?xml version="1.0" encoding="UTF-8" standalone="no"?>
<!DOCTYPE svg PUBLIC "-//W3C//DTD SVG 20010904//EN"
              "http://www.w3.org/TR/2001/REC-SVG-20010904/DTD/svg10.dtd">

<svg xmlns="http://www.w3.org/2000/svg"
     width="1in" height="1in"
     viewBox="0 0 90 90">
  <circle fill="none" stroke="black" cx="45.00" cy="45.00" r="15.00" />
  <path fill="black" stroke="none" d="M 60.00,45.00 A 15.00,15.00 0 0,0 30.00,45.00" />
  <line fill="none" stroke="black" x1="30.00" y1="45.00" x2="30.00" y2="45.00" />
  <line fill="none" stroke="black" x1="30.51" y1="48.88" x2="34.39" y2="45.00" />
  <line fill="none" stroke="black" x1="32.01" y1="52.50" x2="39.51" y2="45.00" />
  <line fill="none" stroke="black" x1="34.39" y1="55.61" x2="45.00" y2="45.00" />
  <line fill="none" stroke="black" x1="37.50" y1="57.99" x2="50.49" y2="45.00" />
  <line fill="none" stroke="black" x1="41.12" y1="59.49" x2="55.61" y2="45.00" />
  <line fill="none" stroke="black" x1="45.00" y1="60.00" x2="60.00" y2="45.00" />
  <line fill="none" stroke="black" x1="48.88" y1="59.49" x2="59.49" y2="48.88" />
  <line fill="none" stroke="black" x1="30.00" y1="45.00" x2="60.00" y2="45.00" />
  <line fill="none" stroke="black" x1="45.00" y1="30.00" x2="45.00" y2="0.00" />
  <line fill="none" stroke="black" x1="60.00" y1="45.00" x2="90.00" y2="45.00" />
  <line fill="none" stroke="black" x1="30.00" y1="45.00" x2="0.00" y2="45.00" />
  <line fill="none" stroke="black" x1="45.00" y1="60.00" x2="45.00" y2="90.00" />

</svg>
