<?xml version="1.0" encoding="UTF-8" standalone="no"?>
<!DOCTYPE svg PUBLIC "-//W3C//DTD SVG 20010904//EN"
              "http://www.w3.org/TR/2001/REC-SVG-20010904/DTD/svg10.dtd">

<svg xmlns="http://www.w3.org/2000/svg"
     width="1in" height="1in"
     viewBox="0 0 90 90">
  <circle fill="none" stroke="black" cx="45.00" cy="45.00" r="15.00" />
  <path fill="black" stroke="none" d="M 30.00,45.00 A 15.00,15.00 0 0,0 60.00,45.00" />
  <path fill="black" stroke="none" d="M 50.74,31.14 A 15.00,15.00 0 0,0 39.26,31.14
                                      L 33.52,17.28 A 30.00,30.00 0 0,1 56.48,17.28 Z" />
  <path fill="black" stroke="none" d="M 58.86,50.74 A 15.00,15.00 0 0,0 58.86,39.26
                                      L 72.72,33.52 A 30.00,30.00 0 0,1 72.72,56.48 Z" />
  <path fill="black" stroke="none" d="M 39.26,58.86 A 15.00,15.00 0 0,0 50.74,58.86
                                      L 56.48,72.72 A 30.00,30.00 0 0,1 33.52,72.72 Z" />
  <path fill="black" stroke="none" d="M 31.89,39.26 A 15.00,15.00 0 0,0 31.89,50.74
                                      L 18.03,56.48 A 30.00,30.00 0 0,1 18.03,33.52 Z" />
</svg>
