<?xml version="1.0" encoding="UTF-8" standalone="no"?>
<!DOCTYPE svg PUBLIC "-//W3C//DTD SVG 20010904//EN"
              "http://www.w3.org/TR/2001/REC-SVG-20010904/DTD/svg10.dtd">

<svg xmlns="http://www.w3.org/2000/svg"
     width="1in" height="1in"
     viewBox="0 0 90 90">
  <circle fill="black" stroke="none" cx="45.00" cy="45.00" r="15.00" />
  <line fill="none" stroke="black" x1="3.60" y1="56.70" x2="6.30" y2="56.70" />
  <line fill="none" stroke="black" x1="6.30" y1="56.70" x2="7.20" y2="55.80" />
  <line fill="none" stroke="black" x1="7.20" y1="55.80" x2="7.20" y2="54.90" />
  <line fill="none" stroke="black" x1="7.20" y1="54.90" x2="6.30" y2="54.00" />
  <line fill="none" stroke="black" x1="6.30" y1="54.00" x2="3.60" y2="54.00" />
  <line fill="none" stroke="black" x1="3.60" y1="54.00" x2="3.60" y2="61.20" />
  <line fill="none" stroke="black" x1="3.60" y1="61.20" x2="7.20" y2="61.20" />
  <line fill="none" stroke="black" x1="7.20" y1="61.20" x2="8.10" y2="60.30" />
  <line fill="none" stroke="black" x1="8.10" y1="60.30" x2="8.10" y2="57.60" />
  <line fill="none" stroke="black" x1="8.10" y1="57.60" x2="7.20" y2="56.70" />
  <line fill="none" stroke="black" x1="7.20" y1="56.70" x2="6.30" y2="56.70" />
  <line fill="none" stroke="black" x1="11.70" y1="63.00" x2="11.70" y2="61.20" />
  <line fill="none" stroke="black" x1="11.70" y1="61.20" x2="17.10" y2="61.20" />
  <line fill="none" stroke="black" x1="17.10" y1="61.20" x2="17.10" y2="63.00" />
  <line fill="none" stroke="black" x1="13.05" y1="61.20" x2="13.95" y2="54.00" />
  <line fill="none" stroke="black" x1="13.95" y1="54.00" x2="15.75" y2="54.00" />
  <line fill="none" stroke="black" x1="15.75" y1="54.00" x2="15.75" y2="61.20" />
  <line fill="none" stroke="black" x1="20.70" y1="54.90" x2="21.60" y2="54.00" />
  <line fill="none" stroke="black" x1="21.60" y1="54.00" x2="24.30" y2="54.00" />
  <line fill="none" stroke="black" x1="24.30" y1="54.00" x2="25.20" y2="54.90" />
  <line fill="none" stroke="black" x1="25.20" y1="54.90" x2="25.20" y2="55.80" />
  <line fill="none" stroke="black" x1="25.20" y1="55.80" x2="24.30" y2="57.15" />
  <line fill="none" stroke="black" x1="24.30" y1="57.15" x2="22.50" y2="57.15" />
  <line fill="none" stroke="black" x1="24.30" y1="57.15" x2="25.20" y2="58.05" />
  <line fill="none" stroke="black" x1="25.20" y1="58.05" x2="25.20" y2="60.30" />
  <line fill="none" stroke="black" x1="25.20" y1="60.30" x2="24.30" y2="61.20" />
  <line fill="none" stroke="black" x1="24.30" y1="61.20" x2="21.60" y2="61.20" />
  <line fill="none" stroke="black" x1="21.60" y1="61.20" x2="20.70" y2="60.30" />
</svg>
