<?xml version="1.0" encoding="UTF-8" standalone="no"?>
<!-- Generator: Adobe Illustrator 19.0.0, SVG Export Plug-In . SVG Version: 6.00 Build 0)  -->

<svg
   xmlns:dc="http://purl.org/dc/elements/1.1/"
   xmlns:cc="http://creativecommons.org/ns#"
   xmlns:rdf="http://www.w3.org/1999/02/22-rdf-syntax-ns#"
   xmlns:svg="http://www.w3.org/2000/svg"
   xmlns="http://www.w3.org/2000/svg"
   xmlns:sodipodi="http://sodipodi.sourceforge.net/DTD/sodipodi-0.dtd"
   xmlns:inkscape="http://www.inkscape.org/namespaces/inkscape"
   version="1.1"
   id="Layer_1"
   x="0px"
   y="0px"
   viewBox="0 0 425 425"
   style="enable-background:new 0 0 425 425;"
   xml:space="preserve"
   width="512px"
   height="512px"
   inkscape:version="0.91 r13725"
   sodipodi:docname="contours.svg"
   inkscape:export-filename="C:\Users\tig\.qgis2\python\plugins\QgisPDS\resources\icons\surface.png"
   inkscape:export-xdpi="11.35"
   inkscape:export-ydpi="11.35"><metadata
     id="metadata45"><rdf:RDF><cc:Work
         rdf:about=""><dc:format>image/svg+xml</dc:format><dc:type
           rdf:resource="http://purl.org/dc/dcmitype/StillImage" /><dc:title></dc:title></cc:Work></rdf:RDF></metadata><defs
     id="defs43"><inkscape:perspective
       sodipodi:type="inkscape:persp3d"
       inkscape:vp_x="0 : 212.5 : 1"
       inkscape:vp_y="0 : 1000 : 0"
       inkscape:vp_z="425 : 212.5 : 1"
       inkscape:persp3d-origin="212.5 : 141.66667 : 1"
       id="perspective4185" /></defs><sodipodi:namedview
     pagecolor="#ffffff"
     bordercolor="#666666"
     borderopacity="1"
     objecttolerance="10"
     gridtolerance="10"
     guidetolerance="10"
     inkscape:pageopacity="0"
     inkscape:pageshadow="2"
     inkscape:window-width="1920"
     inkscape:window-height="1018"
     id="namedview41"
     showgrid="false"
     inkscape:zoom="0.65186406"
     inkscape:cx="248.52668"
     inkscape:cy="222.98875"
     inkscape:window-x="-8"
     inkscape:window-y="32"
     inkscape:window-maximized="1"
     inkscape:current-layer="Layer_1" /><g
     id="g11" /><g
     id="g13" /><g
     id="g15" /><g
     id="g17" /><g
     id="g19" /><g
     id="g21" /><g
     id="g23" /><g
     id="g25" /><g
     id="g27" /><g
     id="g29" /><g
     id="g31" /><g
     id="g33" /><g
     id="g35" /><g
     id="g37" /><g
     id="g39" /><path
     style="fill:#fff8f8;fill-rule:evenodd;stroke:#000000;stroke-width:4.98046895;stroke-linecap:butt;stroke-linejoin:miter;stroke-opacity:1;fill-opacity:1;stroke-miterlimit:4;stroke-dasharray:none"
     d="m 203.89687,411.20445 c 14.58163,-28.08892 47.49691,-44.29202 71.8675,-68.38076 14.46819,-14.30086 36.35306,-21.83336 53.73271,-33.85843 43.2207,-29.90457 83.35414,-65.58991 84.62904,-63.06962 15.19927,30.04699 17.99445,126.55539 7.38824,158.00601 -3.49701,10.36967 -190.96832,27.56508 -217.61749,7.3028 z"
     id="path4164"
     inkscape:connector-curvature="0"
     inkscape:export-xdpi="11"
     inkscape:export-ydpi="11" /><path
     style="fill:#fff8f8;fill-rule:evenodd;stroke:#000000;stroke-width:4.98046895;stroke-linecap:butt;stroke-linejoin:miter;stroke-opacity:1;fill-opacity:1;stroke-miterlimit:4;stroke-dasharray:none"
     d="m 218.26813,411.18602 c -9.09532,3.36938 -163.200416,16.76407 -119.656144,-26.29236 17.911764,-17.71107 42.578454,-29.71988 60.492814,-49.29815 33.81946,-36.96059 60.13774,-79.63231 93.73064,-117.00092 42.96476,-47.79382 126.99887,-74.30594 168.84811,-115.68632 18.19255,-17.98874 5.31804,95.39758 5.31804,107.79861 0,59.56688 -59.61443,74.25519 -111.01429,107.14131 -49.84073,31.88857 -69.01681,67.32209 -97.71917,93.33783 z"
     id="path4168"
     inkscape:connector-curvature="0"
     inkscape:export-xdpi="11"
     inkscape:export-ydpi="11" /><path
     style="fill:#fff8f8;fill-rule:evenodd;stroke:#000000;stroke-width:4.98046895;stroke-linecap:butt;stroke-linejoin:miter;stroke-opacity:1;fill-opacity:1;stroke-miterlimit:4;stroke-dasharray:none"
     d="m 96.600754,420.2904 c -8.48105,-0.69732 -17.1466,0.63669 -25.46783,0.63669 -9.66732,0 -36.75363,6.45432 -40.74853,4.45687 -5.98503,-2.99251 -12.30854,-51.46669 -4.45687,-55.39252 8.30828,-4.15415 100.192756,-32.93455 106.328186,-45.2054 9.76252,-19.52504 6.39338,-49.10483 13.37061,-70.03654 13.57224,-40.71673 118.59441,-96.76953 156.62716,-120.97219 11.09668,-7.06153 11.26732,-27.15678 28.01461,-36.291658 31.30939,-17.07785 36.18839,-84.06105 82.13376,-76.40349 5.2336,0.872267 14.23955,-5.033521 15.91738,0 4.72718,14.181542 14.2461,81.258278 2.54679,92.957578 -13.23856,13.23856 -41.62409,20.11108 -59.8494,29.9247 -2.74217,1.47655 -72.61435,66.2474 -79.58697,73.22002 C 261.44722,247.16688 117.81806,411.80347 96.600754,420.2904 Z"
     id="path4170"
     inkscape:connector-curvature="0"
     inkscape:export-xdpi="11"
     inkscape:export-ydpi="11" /><path
     style="fill:#fff8f8;fill-rule:evenodd;stroke:#000000;stroke-width:4.98046895;stroke-linecap:butt;stroke-linejoin:miter;stroke-opacity:1;fill-opacity:1;stroke-miterlimit:4;stroke-dasharray:none"
     d="M 5.9921725,372.45197 C 18.858253,340.3814 -36.229284,251.13797 -7.0446655,224.38233 c 5.941866,-5.44733 42.8476395,0.87739 55.0444475,-5.9759 34.813492,-19.56144 61.252988,-42.95927 99.224858,-58.43107 110.26234,-44.92684 118.05585,-27.4734 118.05585,-146.74166 0,-3.163539 57.20657,-0.78383 63.73566,-1.327978 19.29166,-1.60783 38.48924,0.663984 57.21726,0.663984 4.85253,0 14.48538,-5.7766529 14.48538,-1.327977 0,83.279299 -165.01946,176.516781 -227.42048,233.724281 -42.69289,39.13963 -23.45086,86.77633 -83.290926,114.20618 -27.660177,12.67902 -63.824307,31.79023 -84.0152115,13.27978 z"
     id="path4174"
     inkscape:connector-curvature="0"
     inkscape:export-xdpi="11"
     inkscape:export-ydpi="11" /><path
     style="fill:#fff8f8;fill-rule:evenodd;stroke:#000000;stroke-width:4.98046895;stroke-linecap:butt;stroke-linejoin:miter;stroke-opacity:1;fill-opacity:1;stroke-miterlimit:4;stroke-dasharray:none"
     d="M -3.9713188,227.57787 C -4.1526632,226.53985 -0.77505423,108.35854 0.09589546,109.19885 15.234503,123.80504 20.527191,138.24324 46.190923,134.70593 185.76647,115.46783 176.70692,12.603771 183.12026,8.4785809 184.56193,7.5512769 253.17881,0.20597418 259.04149,5.8624712 357.66877,101.02106 20.527052,290.60924 -3.9713188,227.57787 Z"
     id="path4176"
     inkscape:connector-curvature="0"
     inkscape:export-xdpi="11"
     inkscape:export-ydpi="11" /><path
     style="fill:#fff8f8;fill-rule:evenodd;stroke:#000000;stroke-width:4.98046895;stroke-linecap:butt;stroke-linejoin:miter;stroke-opacity:1;fill-opacity:1;stroke-miterlimit:4;stroke-dasharray:none"
     d="M 16.548,124.90469 C -18.404891,103.97112 -11.958618,63.281712 -1.28085,32.493546 13.634898,-10.514367 224.52059,-30.948689 199.29372,53.913347 186.89574,95.619573 21.093332,199.17181 16.548,124.90469 Z"
     id="path4182"
     inkscape:connector-curvature="0"
     inkscape:export-xdpi="11"
     inkscape:export-ydpi="11" /><g
     sodipodi:type="inkscape:box3d"
     id="g4187"
     style="opacity:0;fill:#f7f7f7;fill-opacity:1;stroke:#000000;stroke-width:4;stroke-linecap:round;stroke-miterlimit:4;stroke-dasharray:none;stroke-dashoffset:0;stroke-opacity:1"
     inkscape:perspectiveID="#perspective4185"
     inkscape:corner0="-2.1835263 : 0.33909053 : 0 : 1"
     inkscape:corner7="-2.8338154 : 0.010364572 : 0.25 : 1"><path
       sodipodi:type="inkscape:box3dside"
       id="path4193"
       style="fill:#8686bf;fill-rule:evenodd;stroke:none;stroke-width:1px;stroke-linecap:butt;stroke-linejoin:round;stroke-opacity:1"
       inkscape:box3dsidetype="3"
       d="m -179.54819,439.15928 63.66956,-80.37562 0,-179.25794 -63.66956,-18.11774 z"
       points="-115.87863,358.78366 -115.87863,179.52572 -179.54819,161.40798 -179.54819,439.15928 " /><path
       sodipodi:type="inkscape:box3dside"
       id="path4189"
       style="fill:#353564;fill-rule:evenodd;stroke:none;stroke-width:1px;stroke-linecap:butt;stroke-linejoin:round;stroke-opacity:1"
       inkscape:box3dsidetype="6"
       d="m -179.54819,439.15928 0,-277.7513 -161.89909,-13.68254 0,352.1336 z"
       points="-179.54819,161.40798 -341.44728,147.72544 -341.44728,499.85904 -179.54819,439.15928 " /><path
       sodipodi:type="inkscape:box3dside"
       id="path4191"
       style="fill:#4d4d9f;fill-rule:evenodd;stroke:none;stroke-width:1px;stroke-linecap:butt;stroke-linejoin:round;stroke-opacity:1"
       inkscape:box3dsidetype="5"
       d="m -179.54819,439.15928 63.66956,-80.37562 -85.37589,23.09039 -140.19276,117.98499 z"
       points="-115.87863,358.78366 -201.25452,381.87405 -341.44728,499.85904 -179.54819,439.15928 " /><path
       sodipodi:type="inkscape:box3dside"
       id="path4199"
       style="fill:#e9e9ff;fill-rule:evenodd;stroke:none;stroke-width:1px;stroke-linecap:butt;stroke-linejoin:round;stroke-opacity:1"
       inkscape:box3dsidetype="11"
       d="m -341.44728,499.85904 140.19276,-117.98499 0,-207.55321 -140.19276,-26.5954 z"
       points="-201.25452,381.87405 -201.25452,174.32084 -341.44728,147.72544 -341.44728,499.85904 " /><path
       sodipodi:type="inkscape:box3dside"
       id="path4197"
       style="fill:#afafde;fill-rule:evenodd;stroke:none;stroke-width:1px;stroke-linecap:butt;stroke-linejoin:round;stroke-opacity:1"
       inkscape:box3dsidetype="13"
       d="m -179.54819,161.40798 63.66956,18.11774 -85.37589,-5.20488 -140.19276,-26.5954 z"
       points="-115.87863,179.52572 -201.25452,174.32084 -341.44728,147.72544 -179.54819,161.40798 " /><path
       sodipodi:type="inkscape:box3dside"
       id="path4195"
       style="fill:#d7d7ff;fill-rule:evenodd;stroke:none;stroke-width:1px;stroke-linecap:butt;stroke-linejoin:round;stroke-opacity:1"
       inkscape:box3dsidetype="14"
       d="m -115.87863,358.78366 0,-179.25794 -85.37589,-5.20488 0,207.55321 z"
       points="-115.87863,179.52572 -201.25452,174.32084 -201.25452,381.87405 -115.87863,358.78366 " /></g><g
     sodipodi:type="inkscape:box3d"
     id="g4201"
     style="opacity:0;fill:#f7f7f7;fill-opacity:1;stroke:#000000;stroke-width:4;stroke-linecap:round;stroke-miterlimit:4;stroke-dasharray:none;stroke-dashoffset:0;stroke-opacity:1"
     inkscape:perspectiveID="#perspective4185"
     inkscape:corner0="-2.5743132 : -0.0035873769 : 0 : 1"
     inkscape:corner7="-2.6045885 : -0.027494506 : 0.25 : 1"><path
       sodipodi:type="inkscape:box3dside"
       id="path4207"
       style="fill:#8686bf;fill-rule:evenodd;stroke:none;stroke-width:1px;stroke-linecap:butt;stroke-linejoin:round;stroke-opacity:1"
       inkscape:box3dsidetype="3"
       d="m -134.9795,165.22815 2.54679,0.89192 0,-14.89922 -2.54679,-1.17845 z"
       points="-132.43271,166.12007 -132.43271,151.22085 -134.9795,150.0424 -134.9795,165.22815 " /><path
       sodipodi:type="inkscape:box3dside"
       id="path4203"
       style="fill:#353564;fill-rule:evenodd;stroke:none;stroke-width:1px;stroke-linecap:butt;stroke-linejoin:round;stroke-opacity:1"
       inkscape:box3dsidetype="6"
       d="m -134.9795,165.22815 0,-15.18575 -105.71131,-11.79057 0,18.05248 z"
       points="-134.9795,150.0424 -240.69081,138.25183 -240.69081,156.30431 -134.9795,165.22815 " /><path
       sodipodi:type="inkscape:box3dside"
       id="path4205"
       style="fill:#4d4d9f;fill-rule:evenodd;stroke:none;stroke-width:1px;stroke-linecap:butt;stroke-linejoin:round;stroke-opacity:1"
       inkscape:box3dsidetype="5"
       d="m -134.9795,165.22815 2.54679,0.89192 -102.87861,-8.55978 -5.37949,-1.25598 z"
       points="-132.43271,166.12007 -235.31132,157.56029 -240.69081,156.30431 -134.9795,165.22815 " /><path
       sodipodi:type="inkscape:box3dside"
       id="path4213"
       style="fill:#e9e9ff;fill-rule:evenodd;stroke:none;stroke-width:1px;stroke-linecap:butt;stroke-linejoin:round;stroke-opacity:1"
       inkscape:box3dsidetype="11"
       d="m -240.69081,156.30431 5.37949,1.25598 0,-17.649 -5.37949,-1.65946 z"
       points="-235.31132,157.56029 -235.31132,139.91129 -240.69081,138.25183 -240.69081,156.30431 " /><path
       sodipodi:type="inkscape:box3dside"
       id="path4211"
       style="fill:#afafde;fill-rule:evenodd;stroke:none;stroke-width:1px;stroke-linecap:butt;stroke-linejoin:round;stroke-opacity:1"
       inkscape:box3dsidetype="13"
       d="m -134.9795,150.0424 2.54679,1.17845 -102.87861,-11.30956 -5.37949,-1.65946 z"
       points="-132.43271,151.22085 -235.31132,139.91129 -240.69081,138.25183 -134.9795,150.0424 " /><path
       sodipodi:type="inkscape:box3dside"
       id="path4209"
       style="fill:#d7d7ff;fill-rule:evenodd;stroke:none;stroke-width:1px;stroke-linecap:butt;stroke-linejoin:round;stroke-opacity:1"
       inkscape:box3dsidetype="14"
       d="m -132.43271,166.12007 0,-14.89922 -102.87861,-11.30956 0,17.649 z"
       points="-132.43271,151.22085 -235.31132,139.91129 -235.31132,157.56029 -132.43271,166.12007 " /></g></svg>