<?xml version="1.0" encoding="iso-8859-1"?>
<!-- Generator: Adobe Illustrator 22.1.0, SVG Export Plug-In . SVG Version: 6.00 Build 0)  -->
<svg xmlns="http://www.w3.org/2000/svg" xmlns:xlink="http://www.w3.org/1999/xlink" version="1.1" id="Layer_1_1_" x="0px" y="0px" viewBox="0 0 64 64" style="enable-background:new 0 0 64 64;" xml:space="preserve" width="512" height="512">
<g>
	<g>
		<rect x="43" y="20" style="fill:#F0BC5E;" width="16" height="24"/>
	</g>
	<g>
		<path style="fill:#F0BC5E;" d="M27.819,46h-5.639l-0.709-3.541c-0.719-0.222-1.415-0.51-2.079-0.861l-3.006,2.003l-3.987-3.987    l2.003-3.006c-0.352-0.664-0.64-1.36-0.861-2.079L10,33.819v-5.639l3.541-0.709c0.222-0.719,0.51-1.415,0.861-2.079l-2.003-3.006    l3.987-3.987l3.006,2.003c0.664-0.352,1.36-0.64,2.079-0.861L22.181,16h5.639l0.709,3.541c0.719,0.222,1.415,0.51,2.079,0.861    l3.006-2.003l3.987,3.987l-2.003,3.006c0.352,0.664,0.64,1.36,0.861,2.079L40,28.181v5.639l-3.541,0.709    c-0.222,0.719-0.51,1.415-0.861,2.079l2.003,3.006l-3.987,3.987l-3.006-2.003c-0.664,0.352-1.36,0.64-2.079,0.861L27.819,46z"/>
	</g>
	<g>
		<rect x="57" y="39" width="2" height="2"/>
		<rect x="6" y="56" width="26" height="2"/>
		<path d="M25,23c-1.328,0-2.645,0.333-3.807,0.962l0.953,1.759C23.017,25.25,24.004,25,25,25c3.309,0,6,2.691,6,6    c0,0.997-0.249,1.984-0.721,2.854l1.758,0.953C32.667,33.646,33,32.329,33,31C33,26.589,29.411,23,25,23z"/>
		<path d="M25,37c-3.309,0-6-2.691-6-6c0-0.997,0.249-1.984,0.721-2.854l-1.758-0.953C17.333,28.354,17,29.671,17,31    c0,4.411,3.589,8,8,8c1.329,0,2.646-0.333,3.807-0.963l-0.953-1.758C26.984,36.751,25.997,37,25,37z"/>
		<path d="M25,27c-2.206,0-4,1.794-4,4c0,2.206,1.794,4,4,4s4-1.794,4-4C29,28.794,27.206,27,25,27z M25,33c-1.103,0-2-0.897-2-2    s0.897-2,2-2s2,0.897,2,2S26.103,33,25,33z"/>
		<path d="M63,13.586L50.414,1H25v6H7c-3.309,0-6,2.691-6,6v44c0,3.309,2.691,6,6,6h37v-2c-2.206,0-4-1.794-4-4s1.794-4,4-4v-1v-1    v-2h19V13.586z M51,4.414L59.586,13H51V4.414z M39.531,61H7c-2.206,0-4-1.794-4-4s1.794-4,4-4h32.531    C38.58,54.062,38,55.465,38,57S38.58,59.938,39.531,61z M8,51V17H6v34.09c-1.142,0.193-2.173,0.708-3,1.45V13    c0-1.858,1.279-3.411,3-3.858V15h2V9h34v42H8z M44,47v-2h15v-2H44v-2h11v-2H44v-2h15v-2H44v-2h15v-2H44v-2h15v-2H44v-2h15v-2H44    v-2h15v-2H44V7H27V3h22v12h12v32H44z"/>
		<rect x="38" y="11" width="2" height="2"/>
		<rect x="34" y="11" width="2" height="2"/>
		<rect x="10" y="47" width="2" height="2"/>
		<rect x="14" y="47" width="2" height="2"/>
		<rect x="34" y="56" width="2" height="2"/>
	</g>
</g>
</svg>
