<?xml version="1.0" encoding="UTF-8" standalone="no"?>
<svg
   xmlns:dc="http://purl.org/dc/elements/1.1/"
   xmlns:cc="http://creativecommons.org/ns#"
   xmlns:rdf="http://www.w3.org/1999/02/22-rdf-syntax-ns#"
   xmlns:svg="http://www.w3.org/2000/svg"
   xmlns="http://www.w3.org/2000/svg"
   xmlns:sodipodi="http://sodipodi.sourceforge.net/DTD/sodipodi-0.dtd"
   xmlns:inkscape="http://www.inkscape.org/namespaces/inkscape"
   height="597pt"
   version="1.1"
   viewBox="-16 0 597 597.77824"
   width="597pt"
   id="svg2"
   inkscape:version="0.91 r13725"
   sodipodi:docname="GeoPROD24a.svg">
  <metadata
     id="metadata29">
    <rdf:RDF>
      <cc:Work
         rdf:about="">
        <dc:format>image/svg+xml</dc:format>
        <dc:type
           rdf:resource="http://purl.org/dc/dcmitype/StillImage" />
        <dc:title></dc:title>
      </cc:Work>
    </rdf:RDF>
  </metadata>
  <defs
     id="defs27" />
  <sodipodi:namedview
     pagecolor="#ffffff"
     bordercolor="#666666"
     borderopacity="1"
     objecttolerance="10"
     gridtolerance="10"
     guidetolerance="10"
     inkscape:pageopacity="0"
     inkscape:pageshadow="2"
     inkscape:window-width="1920"
     inkscape:window-height="1018"
     id="namedview25"
     showgrid="false"
     inkscape:zoom="0.44724208"
     inkscape:cx="462.13917"
     inkscape:cy="375.50386"
     inkscape:window-x="-8"
     inkscape:window-y="32"
     inkscape:window-maximized="1"
     inkscape:current-layer="svg2" />
  <g
     id="g5289"
     transform="matrix(0.57478849,0.69777974,-0.7234081,0.55442531,175.64678,-69.037509)"
     inkscape:export-xdpi="8.5362091"
     inkscape:export-ydpi="8.5362091">
    <path
       d="m 105.16406,198.12891 2.07813,56.01953 23.13672,0 -2.07813,-56.25 z m 0,0"
       style="fill:#ffdc8c;fill-opacity:1;fill-rule:nonzero;stroke:none"
       id="path5"
       inkscape:connector-curvature="0" />
    <path
       d="m 162.91406,184.74609 -26.42187,0.86328 3,81.11719 26.25,-0.46094 z m 0,0"
       style="fill:#f5b54a;fill-opacity:1;fill-rule:nonzero;stroke:none"
       id="path7"
       inkscape:connector-curvature="0" />
    <path
       d="m 368.64844,186.64844 c -2.95703,-2.12891 -7.05078,-1.625 -9.40625,1.15234 l -79.5,101.36719 c -2.25,2.92578 -1.73438,7.11328 1.15625,9.40234 l 101.36328,79.5586 c 1.19922,1.03906 2.74219,1.61718 4.32812,1.61718 2.06641,0.0117 4.01953,-0.92578 5.3086,-2.53906 l 79.32422,-101.59766 c 2.28125,-2.91015 1.76562,-7.11328 -1.14063,-9.39453 -0.008,-0.004 -0.008,-0.004 -0.0117,-0.0117 z m 0,0"
       style="fill:#f5b54a;fill-opacity:1;fill-rule:nonzero;stroke:none"
       id="path11"
       inkscape:connector-curvature="0" />
    <path
       d="M 542.35937,219.53125 284.87891,17.609375 C 272.375,7.839844 254.32812,10.011719 244.49219,22.453125 l -75.23047,96.175785 7.03906,201.51953 177.86719,139.55859 c 12.5,9.76953 30.54687,7.59766 40.38281,-4.84375 L 547.49609,259.97656 c 9.73828,-12.58984 7.44141,-30.6875 -5.13672,-40.44531 z m -331.90625,26.25 c -1.0039,-0.77734 -1.61328,-1.96094 -1.67187,-3.23047 l -4.03906,-115.38281 c -0.0352,-1.02344 0.28906,-2.02734 0.92578,-2.82813 l 43.09375,-54.925778 c 7.87109,-9.914062 22.25781,-11.640624 32.25,-3.863281 l 51.92187,40.847659 c 9.91797,7.86719 11.64453,22.25781 3.86719,32.25 l -86.13672,109.61328 c -7.86719,9.91797 -22.25781,11.64453 -32.25,3.86719 z m 312.98438,23.59766 -42.51953,5.30859 -0.57813,1.73047 c -0.52734,1.62109 -1.32812,3.14453 -2.36718,4.5 l -79.5,101.42187 c -1.33204,1.67969 -3,3.0586 -4.90235,4.03907 l -1.78906,0.92578 5.25,42 c 0.13672,1.1289 -0.17188,2.27343 -0.86328,3.17187 -0.84375,1.02344 -2.08594,1.62891 -3.40625,1.67188 -2.17969,-0.0117 -4.00781,-1.64453 -4.26953,-3.80469 l -5.3086,-42.40625 -1.73047,-0.57422 c -1.625,-0.56641 -3.14843,-1.41016 -4.5,-2.48437 l -101.42187,-79.5 c -1.67969,-1.33204 -3.05859,-3 -4.03906,-4.90235 l -0.98047,-1.5 -42.51953,5.3086 c -2.39063,-0.0937 -4.25,-2.10157 -4.16016,-4.48829 0.082,-2.05859 1.60547,-3.77734 3.64063,-4.10937 l 42.51953,-5.30859 0.57812,-1.73047 c 0.52344,-1.625 1.32813,-3.14453 2.36719,-4.5 L 352.49609,182.4375 c 1.33203,-1.67578 3,-3.05859 4.90235,-4.03906 l 1.78906,-0.92188 -5.25,-42 c -0.30859,-2.37109 1.36719,-4.53906 3.73828,-4.84765 0.004,0 0.004,0 0.0117,0 1.12891,-0.15625 2.27734,0.16406 3.17187,0.86718 0.92579,0.69922 1.52344,1.73828 1.67188,2.88672 l 5.30859,42.51953 1.73047,0.57422 c 1.62891,0.52735 3.14453,1.32813 4.5,2.36719 l 101.3086,79.55859 c 1.67968,1.33203 3.05859,3 4.03906,4.90235 l 0.92187,1.78906 42.00391,-5.25 c 1.12891,-0.13672 2.26953,0.17578 3.17187,0.86719 1.89844,1.45312 2.25391,4.17187 0.79688,6.0664 -0.71484,0.92969 -1.77344,1.53125 -2.93359,1.66407 z m 0,0"
       style="fill:#ffdc8c;fill-opacity:1;fill-rule:nonzero;stroke:none"
       id="path13"
       inkscape:connector-curvature="0" />
    <path
       d="M 549.74609,210.47656 292.26172,8.550781 C 274.75391,-5.117188 249.48828,-2.078125 235.72266,15.359375 l -76.5,97.382815 c -1.05079,1.32812 -1.60157,2.98437 -1.5586,4.67187 l 1.96485,55.90625 -27.86719,0.92188 c -3.98047,0.1289 -7.10938,3.44922 -6.98047,7.42968 0,0.0234 0,0.0469 0,0.0703 l 0,4.67187 -24.34766,0 c -3.980465,0.0586 -7.156246,3.33985 -7.101559,7.32031 0,0.0586 0,0.1211 0.0078,0.17969 l 2.539062,64.67578 c 0.15625,3.8711 3.339844,6.92578 7.210937,6.92188 l 24.8086,0 0,5.76953 c 0.15625,3.87109 3.33984,6.92969 7.21093,6.92578 l 27.8086,-0.51953 1.55859,44.71094 c 0.10156,2.14453 1.16406,4.13672 2.88281,5.42187 L 347.07421,468.7617 c 17.5039,13.82422 42.89844,10.83594 56.72265,-6.67188 0.0352,-0.0469 0.0703,-0.0937 0.10157,-0.13672 L 556.84375,267.07031 c 13.64062,-17.59375 10.46094,-42.91015 -7.09766,-56.59375 z m -439.73437,40.73047 -1.84375,-50.30859 17.30469,0 1.84765,50.42187 z m 32.25,12.57422 -2.59766,-70.09375 c 0,0 0,0 0,-0.28906 l 0,-4.73047 20.65625,-0.69141 2.65235,75.69141 z m 402.92578,-5.76563 -152.82813,195 c -8.82812,11.20313 -25.05078,13.16016 -36.28906,4.38282 l -177.17578,-138.75 -1.44141,-48.51953 -3.17187,-90.0586 -2.07813,-60.51953 75,-95.367186 c 8.82813,-11.203125 25.05079,-13.15625 36.28907,-4.382813 L 540.97656,221.72656 c 11.21485,8.88281 13.10547,25.17578 4.22266,36.38672 -0.008,0.004 -0.008,0.0117 -0.0117,0.0156 0,0 0,-0.11329 0,-0.11329 z m 0,0"
       style="fill:#2e281e;fill-opacity:1;fill-rule:nonzero;stroke:none"
       id="path15"
       inkscape:connector-curvature="0" />
    <path
       d="M 253.03125,250.05078 339.16797,140.4375 c 8.84765,-11.23828 6.91797,-27.52734 -4.32422,-36.38281 -0.0586,-0.0469 -0.12109,-0.0937 -0.17969,-0.13672 L 282.74219,63.070312 C 271.50391,54.296875 255.28125,56.25 246.45703,67.457031 l -43.09766,54.921879 c -1.05078,1.32422 -1.60546,2.98437 -1.55859,4.67187 l 4.03906,115.38672 c 0.0742,2.12891 1.08985,4.11328 2.76953,5.42187 l 8.07813,6.34766 c 11.23047,8.80859 27.47656,6.84766 36.28516,-4.38672 z m -27.40234,-6.98047 -5.42579,-4.26953 -3.80468,-109.61328 41.48047,-52.847656 c 3.91796,-4.917969 11.04687,-5.785156 16.03906,-1.960938 l 51.92187,40.843754 c 4.91797,3.91797 5.78516,11.05078 1.96094,16.03906 l -86.07812,110.01953 c -3.96875,4.85937 -11.09375,5.65625 -16.03907,1.78906 z m 0,0"
       style="fill:#2e281e;fill-opacity:1;fill-rule:nonzero;stroke:none"
       id="path17"
       inkscape:connector-curvature="0" />
    <path
       d="m 522.05078,257.95703 -39.98047,5.01563 c -1.19531,-2.24219 -2.84375,-4.20313 -4.84375,-5.76563 L 375.80078,177.82031 c -1.61328,-1.24219 -3.42969,-2.1914 -5.36328,-2.82812 l -5.07813,-40.73047 c -0.58593,-3.94141 -4.25781,-6.65625 -8.19921,-6.07031 -3.80469,0.5664 -6.5,4.02734 -6.10547,7.85937 l 5.01562,39.98047 c -2.24219,1.19531 -4.20312,2.84375 -5.76953,4.84766 l -79.67187,101.1914 c -1.24219,1.61328 -2.19141,3.42969 -2.82813,5.36328 l -40.73047,5.07813 c -3.94922,0.5 -6.74219,4.11328 -6.24219,8.0664 0.45704,3.58594 3.4961,6.28125 7.10938,6.29688 l 0.92187,0 40.03907,-5.01563 c 1.19531,2.24219 2.84375,4.20313 4.84765,5.76954 l 101.30469,79.55468 c 1.61719,1.25782 3.42969,2.23438 5.36719,2.88672 l 5.07812,40.38672 c 0.46094,3.59375 3.52344,6.28516 7.15235,6.28516 l 0.92187,0 c 3.95313,-0.50391 6.73828,-4.1211 6.23438,-8.07032 0,0 0,0 0,-0.004 l -5.01953,-40.03906 c 2.23828,-1.17188 4.20312,-2.80469 5.76953,-4.78907 l 79.73047,-101.13672 c 1.23828,-1.61328 2.1914,-3.42968 2.82812,-5.36328 l 40.73047,-5.07812 c 3.9375,-0.58985 6.65625,-4.25781 6.06641,-8.19922 -0.56641,-3.80469 -4.02735,-6.49219 -7.85938,-6.10547 z m -53.07812,15.86328 -79.61329,101.36719 c -1.32031,1.63281 -3.70312,1.91406 -5.36718,0.63281 l -101.25,-79.5 c -1.63282,-1.32031 -1.91407,-3.70312 -0.63282,-5.36328 l 79.44141,-101.59766 c 0.72656,-0.91796 1.82813,-1.44921 3,-1.4414 0.83594,0.004 1.65234,0.28515 2.30859,0.80469 l 101.42188,79.73437 c 1.63281,1.32031 1.91797,3.70313 0.63672,5.36328 0,0 0.0547,0 0.0547,0 z m 0,0"
       style="fill:#2e281e;fill-opacity:1;fill-rule:nonzero;stroke:none"
       id="path19"
       inkscape:connector-curvature="0" />
  </g>
  <g
     transform="matrix(0.98865415,0,0,0.92940849,108.13433,122.7157)"
     id="g4204"
     inkscape:export-xdpi="8.5362091"
     inkscape:export-ydpi="8.5362091">
    <circle
       id="circle17"
       r="128.25999"
       cy="376.23999"
       cx="344.17999"
       style="fill:#edebed" />
    <path
       inkscape:connector-curvature="0"
       id="path19-2"
       d="m 340.542,313.858 c 1.885,-2.326 5.387,-2.326 7.272,0 11.206,13.83 44.461,57.12 44.461,83.782 0,26.563 -21.534,48.097 -48.097,48.097 -26.563,0 -48.097,-21.534 -48.097,-48.097 0,-26.662 33.255,-69.952 44.461,-83.782 z"
       style="fill:#6f6571" />
    <path
       inkscape:connector-curvature="0"
       id="path21"
       d="m 364.218,484.46 c -70.835,0 -128.258,-57.423 -128.258,-128.258 0,-30.31 10.573,-58.115 28.152,-80.065 -29.349,23.504 -48.193,59.58 -48.193,100.106 0,70.835 57.423,128.258 128.258,128.258 40.525,0 76.601,-18.844 100.106,-48.193 -21.95,17.579 -49.756,28.152 -80.065,28.152 z"
       style="fill:#dbd9dc" />
    <path
       inkscape:connector-curvature="0"
       id="path23"
       d="m 330.817,382.954 c 0,-16.665 12.992,-39.827 25.472,-58.229 -3.372,-4.482 -6.331,-8.221 -8.476,-10.868 -1.885,-2.326 -5.387,-2.326 -7.271,0 -11.206,13.831 -44.461,57.12 -44.461,83.782 0,26.563 21.534,48.097 48.097,48.097 13.576,0 25.816,-5.647 34.562,-14.694 -26.482,-0.095 -47.923,-21.584 -47.923,-48.088 z"
       style="fill:#5d5360" />
    <path
       inkscape:connector-curvature="0"
       id="path27"
       d="m 365.882,340.552 c -3.47,2.262 -4.449,6.909 -2.187,10.378 13.791,21.155 21.08,38.223 21.08,49.36 0,22.385 -18.212,40.597 -40.597,40.597 -22.385,0 -40.597,-18.211 -40.597,-40.597 0,-20.985 25.552,-57.47 40.578,-76.352 0.658,0.829 1.36,1.72 2.101,2.669 2.545,3.267 7.259,3.852 10.526,1.305 3.267,-2.547 3.851,-7.259 1.305,-10.526 -4.827,-6.193 -8.082,-9.996 -8.217,-10.155 -1.425,-1.662 -3.505,-2.619 -5.695,-2.619 -2.19,0 -4.27,0.957 -5.694,2.619 -5.108,5.959 -49.902,59.197 -49.902,93.059 0,30.656 24.94,55.597 55.597,55.597 30.657,0 55.597,-24.94 55.597,-55.597 0,-14.254 -7.911,-33.617 -23.514,-57.552 -2.265,-3.47 -6.911,-4.448 -10.381,-2.186 z" />
  </g>
</svg>
