<?xml version="1.0" encoding="UTF-8" standalone="no"?>
<svg
   xmlns:dc="http://purl.org/dc/elements/1.1/"
   xmlns:cc="http://creativecommons.org/ns#"
   xmlns:rdf="http://www.w3.org/1999/02/22-rdf-syntax-ns#"
   xmlns:svg="http://www.w3.org/2000/svg"
   xmlns="http://www.w3.org/2000/svg"
   xmlns:sodipodi="http://sodipodi.sourceforge.net/DTD/sodipodi-0.dtd"
   xmlns:inkscape="http://www.inkscape.org/namespaces/inkscape"
   height="597pt"
   version="1.1"
   viewBox="-53 1 597 597.82"
   width="597pt"
   id="svg2"
   inkscape:version="0.91 r13725"
   sodipodi:docname="GeoPROD24Sum.svg">
  <metadata
     id="metadata27">
    <rdf:RDF>
      <cc:Work
         rdf:about="">
        <dc:format>image/svg+xml</dc:format>
        <dc:type
           rdf:resource="http://purl.org/dc/dcmitype/StillImage" />
        <dc:title></dc:title>
      </cc:Work>
    </rdf:RDF>
  </metadata>
  <defs
     id="defs25" />
  <sodipodi:namedview
     pagecolor="#ffffff"
     bordercolor="#666666"
     borderopacity="1"
     objecttolerance="10"
     gridtolerance="10"
     guidetolerance="10"
     inkscape:pageopacity="0"
     inkscape:pageshadow="2"
     inkscape:window-width="1920"
     inkscape:window-height="1018"
     id="namedview23"
     showgrid="false"
     inkscape:zoom="0.44724208"
     inkscape:cx="182.80474"
     inkscape:cy="258.15535"
     inkscape:window-x="-8"
     inkscape:window-y="32"
     inkscape:window-maximized="1"
     inkscape:current-layer="svg2" />
  <path
     inkscape:connector-curvature="0"
     id="path5"
     style="fill:#ffdc8c;fill-opacity:1;fill-rule:nonzero;stroke:none"
     d="m -13.092768,86.131514 311.346268,0 c 10.51767,0 19.04866,-9.697986 19.04866,-21.654407 0,-11.95974 -8.53099,-21.654405 -19.04866,-21.654405 l -311.346268,0 c -10.520588,0 -19.048662,9.694665 -19.048662,21.654405 0,11.956421 8.528074,21.654407 19.048662,21.654407 z m 0,0"
     inkscape:export-xdpi="7.96"
     inkscape:export-ydpi="7.96" />
  <path
     inkscape:connector-curvature="0"
     id="path7"
     style="fill:#ffdc8c;fill-opacity:1;fill-rule:nonzero;stroke:none"
     d="m 298.2535,458.90281 -311.346268,0 c -10.520588,0 -19.048662,9.69799 -19.048662,21.6544 0,11.95974 8.528074,21.65441 19.048662,21.65441 l 311.346268,0 c 10.51767,0 19.04866,-9.69467 19.04866,-21.65441 0,-11.95973 -8.53099,-21.6544 -19.04866,-21.6544 z m 0,0"
     inkscape:export-xdpi="7.96"
     inkscape:export-ydpi="7.96" />
  <path
     inkscape:connector-curvature="0"
     id="path9"
     style="fill:#ffdc8c;fill-opacity:1;fill-rule:nonzero;stroke:none"
     d="m 297.34782,337.60492 -309.534901,0 c -5.147813,0.003 -9.319821,4.74605 -9.313977,10.59804 0.0029,5.84868 4.172007,10.58476 9.313977,10.5914 l 309.534901,0 c 5.14489,-0.007 9.31982,-4.74935 9.31397,-10.60136 -0.003,-5.84536 -4.172,-10.58475 -9.31397,-10.58808 z m 0,0"
     inkscape:export-xdpi="7.96"
     inkscape:export-ydpi="7.96" />
  <path
     inkscape:connector-curvature="0"
     id="path11"
     style="fill:#ffdc8c;fill-opacity:1;fill-rule:nonzero;stroke:none"
     d="m 297.34782,186.19015 -309.534901,0 c -5.147813,0.007 -9.319821,4.74935 -9.313977,10.60136 0.0029,5.84536 4.172007,10.58475 9.313977,10.58806 l 309.534901,0 c 5.14489,-0.003 9.31982,-4.74935 9.31397,-10.59803 -0.003,-5.84868 -4.172,-10.58475 -9.31397,-10.59139 z m 0,0"
     inkscape:export-xdpi="7.96"
     inkscape:export-ydpi="7.96" />
  <path
     inkscape:connector-curvature="0"
     id="path13"
     style="fill:#8c6e42;fill-opacity:1;fill-rule:nonzero;stroke:none"
     d="M 256.14194,32.570071 C 254.75711,21.596735 246.52119,13.426514 236.76899,13.343484 l -30.6327,0 c -9.75222,0.08303 -17.98814,8.253251 -19.37296,19.226587 l -0.34475,2.796474 70.0681,0 z m 0,0"
     inkscape:export-xdpi="7.96"
     inkscape:export-ydpi="7.96" />
  <path
     inkscape:connector-curvature="0"
     id="path15"
     style="fill:#f5b54a;fill-opacity:1;fill-rule:nonzero;stroke:none"
     d="m -0.19109872,93.341897 285.49911872,0 0,85.441913 -285.49911872,0 z m 0,0"
     inkscape:export-xdpi="7.96"
     inkscape:export-ydpi="7.96" />
  <path
     inkscape:connector-curvature="0"
     id="path17"
     style="fill:#f5b54a;fill-opacity:1;fill-rule:nonzero;stroke:none"
     d="m -0.19109872,366.15087 285.49911872,0 0,85.44192 -285.49911872,0 z m 0,0"
     inkscape:export-xdpi="7.96"
     inkscape:export-ydpi="7.96" />
  <path
     inkscape:connector-curvature="0"
     id="path19"
     style="fill:#f5b54a;fill-opacity:1;fill-rule:nonzero;stroke:none"
     d="m -0.19109872,214.73611 285.49911872,0 0,115.5123 -285.49911872,0 z m 0,0"
     inkscape:export-xdpi="7.96"
     inkscape:export-ydpi="7.96" />
  <path
     inkscape:connector-curvature="0"
     id="path21"
     style="fill:#2e281e;fill-opacity:1;fill-rule:nonzero;stroke:none"
     d="m 298.2535,449.09189 -4.31516,0 0,-80.48663 3.36566,0 c 9.91582,0 17.94723,-9.14001 17.9443,-20.41226 0,-11.26561 -8.03433,-20.39898 -17.9443,-20.39898 l -3.36566,0 0,-110.60353 3.36566,0 c 9.91582,0 17.94723,-9.14002 17.9443,-20.40895 0,-11.26892 -8.03433,-20.39898 -17.9443,-20.39898 l -3.36566,0 0,-80.440136 4.31516,0 c 15.28568,0 27.679,-14.088652 27.679,-31.465317 0,-17.379984 -12.39332,-31.465312 -27.679,-31.465312 l -33.35268,0 C 263.65039,16.399013 251.43821,3.6222488 236.76899,3.5823945 l -30.6327,0 C 191.46414,3.6222477 179.25488,16.399013 178.00445,33.011795 l -191.097218,0 c -15.288596,0 -27.678991,14.085328 -27.678991,31.465312 0,17.376665 12.390395,31.465317 27.678991,31.465317 l 4.3151634,0 0,80.440136 -3.3656524,0 c -9.915822,0 -17.95015,9.1367 -17.944307,20.40895 0,11.2656 8.034328,20.39898 17.944307,20.39898 l 3.3656524,0 0,110.60353 -3.3656524,0 c -9.915822,0 -17.95015,9.1367 -17.944307,20.40894 0,11.26893 8.034328,20.39899 17.944307,20.39899 l 3.3656524,0 0,80.48994 -4.3151634,0 c -15.288596,0 -27.678991,14.08866 -27.678991,31.46532 0,17.37668 12.390395,31.46531 27.678991,31.46531 l 311.346268,0 c 15.28568,0 27.679,-14.08863 27.679,-31.46531 0,-17.37666 -12.39332,-31.46532 -27.679,-31.46532 z m -92.11721,-433.297341 30.6327,0 c 8.73257,-0.08303 16.14461,7.270167 17.26065,17.117609 l -65.11019,0 c 1.11312,-9.827513 8.49593,-17.170748 17.21684,-17.117609 z M -30.00576,64.354222 c 0.02045,-10.581432 7.563955,-19.153521 16.869167,-19.17677 l 311.346283,0 c 9.32858,0 16.89254,8.598659 16.89254,19.200019 0,10.60468 -7.56396,19.20334 -16.89254,19.20334 l -311.302458,0 c -9.340272,0 -16.912992,-8.608623 -16.912992,-19.226589 z m 31.9707824,31.588202 281.2306976,0 0,80.440136 -281.2306976,0 z M -19.347859,196.78486 c 0,-4.49694 3.204967,-8.14032 7.160778,-8.14032 l 309.534901,0 c 3.95581,0 7.16077,3.65002 7.15785,8.14697 0,4.49361 -3.20788,8.137 -7.15785,8.137 l -309.534901,0 c -3.955811,0 -7.160778,-3.64339 -7.160778,-8.14365 z m 21.3128814,20.40563 281.2306976,0 0,110.60353 -281.2306976,0 z M -19.347859,348.19965 c 0,-4.49695 3.204967,-8.14366 7.160778,-8.14366 l 309.534901,0 c 3.95581,0 7.16077,3.65003 7.15785,8.14697 0,4.49362 -3.20788,8.13701 -7.15785,8.13701 l -309.534901,0 c -3.955811,0 -7.160778,-3.64339 -7.160778,-8.14032 z m 21.3128814,20.40561 281.2306976,0 0,80.48663 -281.2306976,0 z m 296.2884776,131.2018 -311.346268,0 c -9.328585,0 -16.892541,-8.59534 -16.892541,-19.20002 0,-10.60469 7.563956,-19.20335 16.892541,-19.20335 l 311.346268,0 c 9.3286,0 16.88962,8.59866 16.88962,19.20335 0.003,10.60468 -7.56102,19.20002 -16.88962,19.20002 z m 0,0"
     inkscape:export-xdpi="7.96"
     inkscape:export-ydpi="7.96" />
  <g
     transform="matrix(0.98872316,0,0,0.92947341,72.003077,121.93946)"
     id="g4204"
     inkscape:export-xdpi="7.96"
     inkscape:export-ydpi="7.96">
    <circle
       id="circle17"
       r="128.25999"
       cy="376.23999"
       cx="344.17999"
       style="fill:#edebed" />
    <path
       inkscape:connector-curvature="0"
       id="path19-2"
       d="m 340.542,313.858 c 1.885,-2.326 5.387,-2.326 7.272,0 11.206,13.83 44.461,57.12 44.461,83.782 0,26.563 -21.534,48.097 -48.097,48.097 -26.563,0 -48.097,-21.534 -48.097,-48.097 0,-26.662 33.255,-69.952 44.461,-83.782 z"
       style="fill:#6f6571" />
    <path
       inkscape:connector-curvature="0"
       id="path21-2"
       d="m 364.218,484.46 c -70.835,0 -128.258,-57.423 -128.258,-128.258 0,-30.31 10.573,-58.115 28.152,-80.065 -29.349,23.504 -48.193,59.58 -48.193,100.106 0,70.835 57.423,128.258 128.258,128.258 40.525,0 76.601,-18.844 100.106,-48.193 -21.95,17.579 -49.756,28.152 -80.065,28.152 z"
       style="fill:#dbd9dc" />
    <path
       inkscape:connector-curvature="0"
       id="path23"
       d="m 330.817,382.954 c 0,-16.665 12.992,-39.827 25.472,-58.229 -3.372,-4.482 -6.331,-8.221 -8.476,-10.868 -1.885,-2.326 -5.387,-2.326 -7.271,0 -11.206,13.831 -44.461,57.12 -44.461,83.782 0,26.563 21.534,48.097 48.097,48.097 13.576,0 25.816,-5.647 34.562,-14.694 -26.482,-0.095 -47.923,-21.584 -47.923,-48.088 z"
       style="fill:#5d5360" />
    <path
       inkscape:connector-curvature="0"
       id="path27"
       d="m 365.882,340.552 c -3.47,2.262 -4.449,6.909 -2.187,10.378 13.791,21.155 21.08,38.223 21.08,49.36 0,22.385 -18.212,40.597 -40.597,40.597 -22.385,0 -40.597,-18.211 -40.597,-40.597 0,-20.985 25.552,-57.47 40.578,-76.352 0.658,0.829 1.36,1.72 2.101,2.669 2.545,3.267 7.259,3.852 10.526,1.305 3.267,-2.547 3.851,-7.259 1.305,-10.526 -4.827,-6.193 -8.082,-9.996 -8.217,-10.155 -1.425,-1.662 -3.505,-2.619 -5.695,-2.619 -2.19,0 -4.27,0.957 -5.694,2.619 -5.108,5.959 -49.902,59.197 -49.902,93.059 0,30.656 24.94,55.597 55.597,55.597 30.657,0 55.597,-24.94 55.597,-55.597 0,-14.254 -7.911,-33.617 -23.514,-57.552 -2.265,-3.47 -6.911,-4.448 -10.381,-2.186 z" />
  </g>
</svg>
