<?xml version="1.0" encoding="UTF-8" standalone="no"?>
<!-- Generator: Adobe Illustrator 19.0.0, SVG Export Plug-In . SVG Version: 6.00 Build 0)  -->

<svg
   xmlns:osb="http://www.openswatchbook.org/uri/2009/osb"
   xmlns:dc="http://purl.org/dc/elements/1.1/"
   xmlns:cc="http://creativecommons.org/ns#"
   xmlns:rdf="http://www.w3.org/1999/02/22-rdf-syntax-ns#"
   xmlns:svg="http://www.w3.org/2000/svg"
   xmlns="http://www.w3.org/2000/svg"
   xmlns:xlink="http://www.w3.org/1999/xlink"
   xmlns:sodipodi="http://sodipodi.sourceforge.net/DTD/sodipodi-0.dtd"
   xmlns:inkscape="http://www.inkscape.org/namespaces/inkscape"
   version="1.1"
   id="Capa_1"
   x="0px"
   y="0px"
   viewBox="0 0 59 59"
   style="enable-background:new 0 0 59 59;"
   xml:space="preserve"
   inkscape:version="0.91 r13725"
   sodipodi:docname="move_point.svg"><metadata
     id="metadata43"><rdf:RDF><cc:Work
         rdf:about=""><dc:format>image/svg+xml</dc:format><dc:type
           rdf:resource="http://purl.org/dc/dcmitype/StillImage" /><dc:title></dc:title></cc:Work></rdf:RDF></metadata><defs
     id="defs41"><linearGradient
       inkscape:collect="always"
       id="linearGradient8871"><stop
         style="stop-color:#83684e;stop-opacity:1;"
         offset="0"
         id="stop8873" /><stop
         style="stop-color:#f5b54a;stop-opacity:1"
         offset="1"
         id="stop8875" /></linearGradient><linearGradient
       id="linearGradient6131"
       osb:paint="solid"><stop
         style="stop-color:#000000;stop-opacity:1;"
         offset="0"
         id="stop6133" /></linearGradient><marker
       inkscape:stockid="Arrow2Mend"
       orient="auto"
       refY="0.0"
       refX="0.0"
       id="Arrow2Mend"
       style="overflow:visible;"
       inkscape:isstock="true"><path
         id="path4234"
         style="fill-rule:evenodd;stroke-width:0.625;stroke-linejoin:round;stroke:#f5b54a;stroke-opacity:1;fill:#f5b54a;fill-opacity:1"
         d="M 8.7185878,4.0337352 L -2.2072895,0.016013256 L 8.7185884,-4.0017078 C 6.9730900,-1.6296469 6.9831476,1.6157441 8.7185878,4.0337352 z "
         transform="scale(0.6) rotate(180) translate(0,0)" /></marker><marker
       inkscape:stockid="Arrow1Lstart"
       orient="auto"
       refY="0.0"
       refX="0.0"
       id="Arrow1Lstart"
       style="overflow:visible"
       inkscape:isstock="true"><path
         id="path4207"
         d="M 0.0,0.0 L 5.0,-5.0 L -12.5,0.0 L 5.0,5.0 L 0.0,0.0 z "
         style="fill-rule:evenodd;stroke:#000000;stroke-width:1pt;stroke-opacity:1;fill:#000000;fill-opacity:1"
         transform="scale(0.8) translate(12.5,0)" /></marker><inkscape:path-effect
       effect="spiro"
       id="path-effect4193"
       is_visible="true" /><linearGradient
       inkscape:collect="always"
       xlink:href="#linearGradient8871"
       id="linearGradient8877"
       x1="15.417101"
       y1="39.048291"
       x2="48.743496"
       y2="39.048291"
       gradientUnits="userSpaceOnUse" /></defs><sodipodi:namedview
     pagecolor="#ffffff"
     bordercolor="#666666"
     borderopacity="1"
     objecttolerance="10"
     gridtolerance="10"
     guidetolerance="10"
     inkscape:pageopacity="0"
     inkscape:pageshadow="2"
     inkscape:window-width="1920"
     inkscape:window-height="1018"
     id="namedview39"
     showgrid="false"
     inkscape:zoom="5.6568542"
     inkscape:cx="25.005822"
     inkscape:cy="26.408965"
     inkscape:window-x="-8"
     inkscape:window-y="32"
     inkscape:window-maximized="1"
     inkscape:current-layer="Capa_1" /><path
     style="fill:#f5b54a;fill-opacity:1"
     d="M53.47,2.669L53.47,2.669c-3.157-3.559-8.276-3.559-11.433,0v0c-3.157,3.559-3.157,9.328,0,12.887  L47.753,22l5.716-6.444C56.627,11.998,56.627,6.228,53.47,2.669z M48,13c-2.485,0-4.5-2.015-4.5-4.5S45.515,4,48,4  s4.5,2.015,4.5,4.5S50.485,13,48,13z"
     id="path5" /><path
     style="fill:#7d6f59;fill-opacity:1"
     d="M19.278,28.64c-4.296-4.853-11.261-4.853-15.556,0h0c-4.296,4.853-4.296,12.721,0,17.573L11.5,55  l7.778-8.787C23.574,41.36,23.574,33.492,19.278,28.64z M11.5,41c-2.761,0-5-2.239-5-5s2.239-5,5-5s5,2.239,5,5S14.261,41,11.5,41z"
     id="path7" /><g
     id="g9" /><g
     id="g11" /><g
     id="g13" /><g
     id="g15" /><g
     id="g17" /><g
     id="g19" /><g
     id="g21" /><g
     id="g23" /><g
     id="g25" /><g
     id="g27" /><g
     id="g29" /><g
     id="g31" /><g
     id="g33" /><g
     id="g35" /><g
     id="g37" /><path
     style="opacity:0;fill:#f5b54a;fill-opacity:1;stroke:#000000;stroke-width:8.84799957;stroke-miterlimit:4;stroke-dasharray:none;stroke-opacity:1"
     id="path4195"
     d="m 16.52517,52.496546 c 0.799198,-0.282478 1.490864,-0.976552 2.314094,-1.280838 0.11223,-0.04148 0.23025,-0.06523 0.344856,-0.09961 0.0332,-0.01 0.763886,-0.237095 0.784392,-0.243467 1.613609,-0.500995 3.273389,-0.825306 4.909548,-1.240648 0.554164,-0.150141 1.121371,-0.279077 1.658673,-0.486184 0.450736,-0.17374 0.888385,-0.39489 1.317001,-0.616343 -2.389393,1.323836 -1.221329,0.812963 -0.830591,0.365692 0.07327,-0.08387 0.284725,-0.405118 0.327791,-0.463799 0.07584,-0.103342 0.15733,-0.202419 0.235995,-0.303628 0.478683,-0.53236 0.925695,-1.083679 1.339487,-1.66742 0.117105,-0.118457 0.22819,-0.243186 0.351316,-0.355372 0.05145,-0.04688 0.830299,-0.688282 0.888959,-0.73713 0.392924,-0.327205 0.783668,-0.65384 1.185578,-0.97006 0.701352,-0.613852 1.337994,-1.294543 2.033503,-1.915783 0.837997,-0.739165 1.72945,-1.439199 2.400849,-2.340117 0.09916,-0.142554 0.199357,-0.284399 0.297494,-0.427663 0.109641,-0.160059 0.210355,-0.326379 0.325824,-0.482285 0.499253,-0.674089 1.079536,-1.282304 1.654051,-1.891208 0.560006,-0.614641 1.013767,-1.313878 1.505366,-1.982443 0.361333,-0.504503 0.720105,-1.016213 1.011794,-1.565394 0.10987,-0.206858 0.206327,-0.420578 0.311892,-0.629666 0.556053,-1.044755 1.162065,-2.061959 1.736351,-3.096955 0.52813,-1.054335 0.982571,-2.147182 1.357393,-3.265216 0.21876,-0.576792 0.342029,-1.180183 0.490571,-1.77674 0.06583,-0.232384 0.130161,-0.464983 0.189779,-0.699027 0,0 1.653325,-0.792401 1.653325,-0.792401 l 0,0 c -0.05712,0.236604 -0.121946,0.470534 -0.195076,0.70279 -0.157823,0.607521 -0.275386,1.225884 -0.52108,1.807524 -0.394607,1.122696 -0.849881,2.225961 -1.359069,3.301111 -0.576153,1.019542 -1.18476,2.02207 -1.700445,3.074168 -0.219129,0.415298 -0.113531,0.201945 -0.31583,0.640534 -0.290962,0.559082 -0.669372,1.069378 -1.020655,1.59035 -0.184225,0.254911 -0.378253,0.50278 -0.557693,0.761083 -0.297177,0.427784 -0.565349,0.87777 -0.942253,1.245149 -0.583191,0.598347 -1.179652,1.191919 -1.676542,1.866748 -0.113253,0.153809 -0.210233,0.318962 -0.315039,0.478648 -0.09311,0.141862 -0.185804,0.283996 -0.278706,0.425994 -0.08154,0.115637 -0.156854,0.235919 -0.244608,0.346912 -0.250081,0.31631 -0.405321,0.451359 -0.70748,0.731142 -0.318089,0.294532 -0.636959,0.588275 -0.960148,0.877201 -0.162491,0.145263 -0.328995,0.285975 -0.493493,0.428962 -0.698614,0.61886 -1.338073,1.296877 -2.027136,1.925282 -0.555628,0.432625 -1.090597,0.888289 -1.635975,1.333542 -0.145378,0.118687 -0.296289,0.230671 -0.4386,0.353019 -0.116242,0.09994 -0.224374,0.208934 -0.336561,0.313402 -0.185315,0.261023 -0.360072,0.529299 -0.561811,0.778263 -0.341401,0.421319 -0.156012,0.17171 -0.524113,0.591025 -0.0893,0.101723 -0.173377,0.207914 -0.260066,0.311871 -0.241393,0.295711 -0.219814,0.249018 -0.411767,0.557549 -0.04363,0.07012 -0.07611,0.147241 -0.124195,0.214389 -0.511814,0.714732 -1.739984,1.006394 -2.26045,1.461933 -0.433934,0.211835 -0.872359,0.42517 -1.327397,0.588947 -0.52616,0.189376 -1.078078,0.304368 -1.618937,0.440444 -1.661979,0.395395 -3.339348,0.739012 -4.95892,1.292446 -0.377666,0.119093 -0.765618,0.224839 -1.131676,0.377582 -0.603628,0.251873 -1.736975,1.00624 0.829228,-0.526822 0,0 -1.718798,0.672518 -1.718798,0.672518 z"
     inkscape:connector-curvature="0" /><path
     style="fill:none;fill-rule:evenodd;stroke:url(#linearGradient8877);stroke-width:1.6;stroke-linecap:butt;stroke-linejoin:miter;stroke-opacity:1;stroke-miterlimit:4;stroke-dasharray:6.4, 6.40000000000000040;stroke-dashoffset:0;marker-end:url(#Arrow2Mend);fill-opacity:1"
     d="M 15.625,53.625 C 30.32557,49.668787 39.919936,36.337871 47.25,25.75"
     id="path4201"
     inkscape:connector-curvature="0" /></svg>