<?xml version="1.0" encoding="UTF-8" standalone="no"?>
<!-- Generator: Adobe Illustrator 19.0.0, SVG Export Plug-In . SVG Version: 6.00 Build 0)  -->

<svg
   xmlns:osb="http://www.openswatchbook.org/uri/2009/osb"
   xmlns:dc="http://purl.org/dc/elements/1.1/"
   xmlns:cc="http://creativecommons.org/ns#"
   xmlns:rdf="http://www.w3.org/1999/02/22-rdf-syntax-ns#"
   xmlns:svg="http://www.w3.org/2000/svg"
   xmlns="http://www.w3.org/2000/svg"
   xmlns:sodipodi="http://sodipodi.sourceforge.net/DTD/sodipodi-0.dtd"
   xmlns:inkscape="http://www.inkscape.org/namespaces/inkscape"
   version="1.1"
   id="Capa_1"
   x="0px"
   y="0px"
   viewBox="0 0 512 512"
   style="enable-background:new 0 0 512 512;"
   xml:space="preserve"
   inkscape:version="0.91 r13725"
   sodipodi:docname="point_to_zonation.svg"
   inkscape:export-filename="C:\Users\tig\.qgis2\python\plugins\QgisPDS\resources\icons\point_to_zonation.png"
   inkscape:export-xdpi="10.14"
   inkscape:export-ydpi="10.14"><metadata
     id="metadata57"><rdf:RDF><cc:Work
         rdf:about=""><dc:format>image/svg+xml</dc:format><dc:type
           rdf:resource="http://purl.org/dc/dcmitype/StillImage" /><dc:title></dc:title></cc:Work></rdf:RDF></metadata><defs
     id="defs55"><linearGradient
       id="linearGradient7327"
       osb:paint="solid"><stop
         style="stop-color:#000000;stop-opacity:1;"
         offset="0"
         id="stop7329" /></linearGradient><linearGradient
       id="linearGradient7321"
       osb:paint="solid"><stop
         style="stop-color:#281601;stop-opacity:1;"
         offset="0"
         id="stop7323" /></linearGradient><linearGradient
       id="linearGradient7315"
       osb:paint="solid"><stop
         style="stop-color:#281601;stop-opacity:1;"
         offset="0"
         id="stop7317" /></linearGradient><marker
       inkscape:stockid="Arrow2Mend"
       orient="auto"
       refY="0"
       refX="0"
       id="Arrow2Mend"
       style="overflow:visible"
       inkscape:isstock="true"><path
         inkscape:connector-curvature="0"
         id="path4234"
         style="fill:#d3873d;fill-opacity:1;fill-rule:evenodd;stroke:#d3873d;stroke-width:0.625;stroke-linejoin:round;stroke-opacity:1"
         d="M 8.7185878,4.0337352 -2.2072895,0.01601326 8.7185884,-4.0017078 c -1.7454984,2.3720609 -1.7354408,5.6174519 -6e-7,8.035443 z"
         transform="scale(-0.6,-0.6)" /></marker></defs><sodipodi:namedview
     pagecolor="#ffffff"
     bordercolor="#666666"
     borderopacity="1"
     objecttolerance="10"
     gridtolerance="10"
     guidetolerance="10"
     inkscape:pageopacity="0"
     inkscape:pageshadow="2"
     inkscape:window-width="1131"
     inkscape:window-height="776"
     id="namedview53"
     showgrid="false"
     inkscape:zoom="0.65186406"
     inkscape:cx="175.12619"
     inkscape:cy="344.55672"
     inkscape:window-x="496"
     inkscape:window-y="98"
     inkscape:window-maximized="0"
     inkscape:current-layer="Capa_1" /><g
     id="g6180"
     transform="matrix(-0.96692215,-0.01796684,-0.15763518,0.51864881,547.13104,68.313523)"
     inkscape:export-xdpi="22.08"
     inkscape:export-ydpi="22.08"><polygon
       inkscape:export-ydpi="38.970001"
       inkscape:export-xdpi="38.970001"
       transform="matrix(0.74280078,0,-0.4011751,0.41873426,185.87622,150.97352)"
       style="fill:#2b6031;fill-opacity:1"
       points="0,512 123.586,450.207 256,512 388.414,450.207 512,512 512,61.793 388.414,0 256,61.793 123.586,0 0,61.793 "
       id="polygon5-5" /><polygon
       inkscape:export-ydpi="38.970001"
       inkscape:export-xdpi="38.970001"
       transform="matrix(0.73966659,0,-0.4011751,0.41873426,187.48092,150.97352)"
       style="fill:#07b671;fill-opacity:1"
       points="123.586,0 0,61.793 0,512 123.586,450.207 "
       id="polygon7-2" /><polygon
       inkscape:export-ydpi="38.970001"
       inkscape:export-xdpi="38.970001"
       transform="matrix(0.73966659,0,-0.4011751,0.41873426,187.48092,150.97352)"
       style="fill:#2b6031;fill-opacity:1"
       points="123.586,0 256,61.793 256,512 123.586,450.207 "
       id="polygon11-3" /><polygon
       inkscape:export-ydpi="38.970001"
       inkscape:export-xdpi="38.970001"
       transform="matrix(0.73966659,0,-0.4011751,0.41873426,187.48092,150.97352)"
       style="fill:#255000;fill-opacity:0"
       points="388.414,0 512,61.793 512,512 388.414,450.207 "
       id="polygon13-1" /><polygon
       inkscape:export-ydpi="38.970001"
       inkscape:export-xdpi="38.970001"
       transform="matrix(0.73966659,0,-0.4011751,0.41873426,187.48092,150.97352)"
       id="polygon15-9"
       points="256,512 388.414,450.207 388.414,0 256,61.793 "
       style="fill:#07b671;fill-opacity:1" /></g><g
     id="g4252"
     transform="matrix(0.6534261,0,0,0.48481051,103.37541,250.8878)"
     inkscape:export-xdpi="22.08"
     inkscape:export-ydpi="22.08"><polygon
       transform="matrix(1,0,-0.56779661,0.41873426,145.35593,297.60806)"
       style="fill:#366db6"
       points="512,61.793 388.414,0 256,61.793 123.586,0 0,61.793 0,512 123.586,450.207 256,512 388.414,450.207 512,512 "
       id="polygon5" /><polygon
       transform="matrix(1,0,-0.56779661,0.41873426,145.35593,297.60806)"
       style="fill:#7d6f59;fill-opacity:1"
       points="123.586,0 0,61.793 0,512 123.586,450.207 "
       id="polygon7" /><polygon
       transform="matrix(1,0,-0.56779661,0.41873426,145.35593,297.60806)"
       style="fill:#47361e;fill-opacity:1"
       points="123.586,0 256,61.793 256,512 123.586,450.207 "
       id="polygon11" /><polygon
       transform="matrix(1,0,-0.56779661,0.41873426,145.35593,297.60806)"
       style="fill:#47361e;fill-opacity:1"
       points="388.414,0 512,61.793 512,512 388.414,450.207 "
       id="polygon13" /><polygon
       transform="matrix(1,0,-0.56779661,0.41873426,145.35593,297.60806)"
       id="polygon15"
       points="256,512 388.414,450.207 388.414,0 256,61.793 "
       style="fill:#7d6f59;fill-opacity:1" /></g><g
     id="g23" /><g
     id="g25" /><g
     id="g27" /><g
     id="g29" /><g
     id="g31" /><g
     id="g33" /><g
     id="g35" /><g
     id="g37" /><g
     id="g39" /><g
     id="g41" /><g
     id="g43" /><g
     id="g45" /><g
     id="g47" /><g
     id="g49" /><g
     id="g51" /><path
     style="fill:#f5b54a;fill-opacity:1;stroke:#281601;stroke-width:10.46118832;stroke-miterlimit:4;stroke-dasharray:none;stroke-opacity:1"
     d="m 368.17393,3.748593 c -73.17575,0 -132.49752,42.212204 -132.49752,94.281686 0,52.069491 132.49752,141.424061 132.49752,141.424061 0,0 132.4995,-89.3554 132.4995,-141.424061 0,-52.068653 -59.32373,-94.281686 -132.4995,-94.281686 z m -3.63509,32.680129 a 72.272444,44.195189 0 0 1 72.27191,44.19587 72.272444,44.195189 0 0 1 -72.27191,44.194358 72.272444,44.195189 0 0 1 -72.27192,-44.194358 72.272444,44.195189 0 0 1 72.27192,-44.19587 z"
     id="path19-3-5-6"
     inkscape:connector-curvature="0"
     inkscape:export-xdpi="22"
     inkscape:export-ydpi="22" /><path
     style="fill:#f5b54a;fill-opacity:1;stroke:#281601;stroke-width:10.46118832;stroke-miterlimit:4;stroke-dasharray:none;stroke-opacity:1"
     d="m 122.72398,224.86115 c -73.175748,0 -132.4975181,42.2122 -132.4975181,94.28169 0,52.06949 132.4975181,141.42406 132.4975181,141.42406 0,0 132.4995,-89.3554 132.4995,-141.42406 0,-52.06866 -59.32373,-94.28169 -132.4995,-94.28169 z m -3.63509,32.68013 a 72.272444,44.195189 0 0 1 72.27191,44.19587 72.272444,44.195189 0 0 1 -72.27191,44.19436 72.272444,44.195189 0 0 1 -72.271918,-44.19436 72.272444,44.195189 0 0 1 72.271918,-44.19587 z"
     id="path19-3-5-6-4"
     inkscape:connector-curvature="0"
     inkscape:export-xdpi="22"
     inkscape:export-ydpi="22" /></svg>