<?xml version="1.0" encoding="iso-8859-1"?>
<!-- Generator: Adobe Illustrator 19.0.0, SVG Export Plug-In . SVG Version: 6.00 Build 0)  -->
<svg version="1.1" id="Layer_1" xmlns="http://www.w3.org/2000/svg" xmlns:xlink="http://www.w3.org/1999/xlink" x="0px" y="0px"
	 viewBox="0 0 513.048 513.048" style="enable-background:new 0 0 513.048 513.048;" xml:space="preserve">
<g>
	
		<rect x="20.176" y="321.324" transform="matrix(-0.1935 0.9811 -0.9811 -0.1935 556.2436 193.388)" style="fill:#8BA0AE;" width="356.92" height="7.992"/>
	
		<rect x="310.449" y="146.861" transform="matrix(-0.981 0.1942 -0.1942 -0.981 686.0817 583.3999)" style="fill:#8BA0AE;" width="7.992" height="356.933"/>
	<polygon style="fill:#8BA0AE;" points="165.759,503.984 162.279,496.784 301.135,429.744 177.591,429.744 290.655,363.992 
		193.127,363.992 280.039,283.208 204.391,283.208 272.367,220.408 220.231,220.408 220.231,212.408 292.823,212.408 
		224.847,275.208 300.399,275.208 213.487,355.992 320.327,355.992 207.263,421.744 336.103,421.744 	"/>
</g>
<rect x="23.153" y="137.21" transform="matrix(-0.9798 0.1998 -0.1998 -0.9798 485.5587 256.8645)" style="fill:#435B6C;" width="413.329" height="31.447"/>
<g>
	<path style="fill:#8BA0AE;" d="M461.175,118.312l24,117.696c0,0-52.016-34.408-60.336-75.192s-6.872-33.696-6.872-33.696
		L461.175,118.312z"/>
	<path style="fill:#8BA0AE;" d="M461.175,118.312l24,117.696c0,0,34.392-52.032,26.072-92.816s-6.872-33.696-6.872-33.696
		L461.175,118.312z"/>
	<polygon style="fill:#8BA0AE;" points="472.879,0 404.079,14.032 417.975,127.128 504.383,109.504 	"/>
</g>
<rect x="7.303" y="161.36" transform="matrix(-0.9798 0.1998 -0.1998 -0.9798 73.6748 384.9951)" style="fill:#435B6C;" width="20.215" height="69.709"/>
<rect x="0.503" y="497.048" style="fill:#8BA0AE;" width="512" height="16"/>
<g>
</g>
<g>
</g>
<g>
</g>
<g>
</g>
<g>
</g>
<g>
</g>
<g>
</g>
<g>
</g>
<g>
</g>
<g>
</g>
<g>
</g>
<g>
</g>
<g>
</g>
<g>
</g>
<g>
</g>
</svg>
