<?xml version="1.0" encoding="UTF-8" standalone="no"?>
<svg
   xmlns:dc="http://purl.org/dc/elements/1.1/"
   xmlns:cc="http://creativecommons.org/ns#"
   xmlns:rdf="http://www.w3.org/1999/02/22-rdf-syntax-ns#"
   xmlns:svg="http://www.w3.org/2000/svg"
   xmlns="http://www.w3.org/2000/svg"
   xmlns:sodipodi="http://sodipodi.sourceforge.net/DTD/sodipodi-0.dtd"
   xmlns:inkscape="http://www.inkscape.org/namespaces/inkscape"
   height="512pt"
   viewBox="0 0 512 512"
   width="512pt"
   id="svg2"
   version="1.1"
   inkscape:version="0.91 r13725"
   sodipodi:docname="type_well.svg"
   inkscape:export-filename="C:\Users\tig\.qgis2\python\plugins\QgisPDS\resources\icons\type_well.png"
   inkscape:export-xdpi="27"
   inkscape:export-ydpi="27">
  <metadata
     id="metadata16">
    <rdf:RDF>
      <cc:Work
         rdf:about="">
        <dc:format>image/svg+xml</dc:format>
        <dc:type
           rdf:resource="http://purl.org/dc/dcmitype/StillImage" />
        <dc:title></dc:title>
      </cc:Work>
    </rdf:RDF>
  </metadata>
  <defs
     id="defs14">
    <pattern
       y="0"
       x="0"
       height="6"
       width="6"
       patternUnits="userSpaceOnUse"
       id="EMFhbasepattern" />
  </defs>
  <sodipodi:namedview
     pagecolor="#ffffff"
     bordercolor="#666666"
     borderopacity="1"
     objecttolerance="10"
     gridtolerance="10"
     guidetolerance="10"
     inkscape:pageopacity="0"
     inkscape:pageshadow="2"
     inkscape:window-width="1327"
     inkscape:window-height="894"
     id="namedview12"
     showgrid="false"
     inkscape:zoom="0.36875"
     inkscape:cx="320"
     inkscape:cy="320"
     inkscape:window-x="259"
     inkscape:window-y="125"
     inkscape:window-maximized="0"
     inkscape:current-layer="svg2" />
  <path
     d="m0 512v-32c172.433594 0 341.089844-46.894531 487.710938-135.617188l16.5625 27.378907c-151.617188 91.757812-325.984376 140.238281-504.273438 140.238281zm0 0"
     fill="#64b5f6"
     id="path4" />
  <path
     d="m0 512v-32c264.671875 0 480-215.328125 480-480h32c0 282.320312-229.679688 512-512 512zm0 0"
     fill="#fdd835"
     id="path6" />
  <path
     d="m0 512v-32c163.441406 0 316.832031-179.503906 400.320312-468.433594l30.75 8.882813c-87.613281 303.199219-252.78125 491.550781-431.070312 491.550781zm0 0"
     fill="#ef5350"
     id="path8" />
  <path
     d="m512 512h-512v-32h480v-480h32zm0 0"
     fill="#b0bec5"
     id="path10" />
  <g
     id="g4169"
     transform="matrix(1.1326613,0,0,1.2642432,-0.36610882,-0.42084781)">
    <g
       inkscape:export-ydpi="27.17"
       inkscape:export-xdpi="27.17"
       transform="matrix(1.4632173,0,0,1.5004586,-236.9546,-814.59103)"
       id="g4210">
      <path
         style="fill:#6f6571"
         d="m 228.29448,552.19255 c 2.27361,-2.52403 6.49758,-2.52403 8.77119,0 13.51622,15.00743 53.62704,61.98297 53.62704,90.91487 0,28.82447 -25.97343,52.19179 -58.01263,52.19179 -32.03921,0 -58.01264,-23.36732 -58.01264,-52.19179 0,-28.9319 40.11082,-75.90744 53.62704,-90.91487 z"
         id="path19-2"
         inkscape:connector-curvature="0" />
      <path
         style="fill:#5d5360"
         d="m 216.56458,627.17111 c 0,-18.08379 15.67042,-43.21772 30.72329,-63.18639 -4.06717,-4.86358 -7.63619,-8.9209 -10.22341,-11.79326 -2.27361,-2.52403 -6.49758,-2.52403 -8.76998,0 -13.51622,15.00852 -53.62704,61.98297 -53.62704,90.91487 0,28.82447 25.97343,52.1918 58.01264,52.1918 16.37481,0 31.1382,-6.12777 41.68727,-15.94499 -31.94151,-0.10309 -57.80277,-23.42158 -57.80277,-52.18203 z"
         id="path23"
         inkscape:connector-curvature="0" />
      <path
         d="m 257.06178,582.95594 c -4.18537,2.45458 -5.3662,7.4972 -2.63787,11.26154 16.63415,22.95606 25.42584,41.47716 25.42584,53.56232 0,24.29077 -21.96657,44.05327 -48.96644,44.05327 -26.99988,0 -48.96645,-19.76141 -48.96645,-44.05327 0,-22.77158 30.81978,-62.36277 48.94353,-82.85231 0.79365,0.89958 1.64037,1.86643 2.53414,2.89623 3.06967,3.54514 8.75551,4.17994 12.69603,1.4161 3.94052,-2.76384 4.64492,-7.877 1.57404,-11.42214 -5.82213,-6.72025 -9.74818,-10.84702 -9.91101,-11.01956 -1.71878,-1.8035 -4.22759,-2.84197 -6.86908,-2.84197 -2.64149,0 -5.1503,1.03847 -6.86787,2.84197 -6.16106,6.46633 -60.18976,64.2368 -60.18976,100.98168 0,33.26593 30.08161,60.33031 67.05884,60.33031 36.97722,0 67.05883,-27.06329 67.05883,-60.33031 0,-15.46753 -9.54192,-36.47902 -28.36163,-62.45175 -2.73195,-3.76543 -8.33576,-4.82669 -12.52114,-2.37211 z"
         id="path27"
         inkscape:connector-curvature="0" />
    </g>
    <path
       style="fill:#ffffff;fill-opacity:1;fill-rule:nonzero;stroke:#000000;stroke-width:0.98150212px;stroke-linecap:butt;stroke-linejoin:miter;stroke-miterlimit:4;stroke-dasharray:none;stroke-opacity:1"
       d="m 69.981417,161.5544 c -24.57829,-81.300382 -7.96196,-34.03802 -3.80784,-51.40201 -3.73871,1.26493 -6.92351,2.41485 -9.2775,3.21981 -2.07697,0.80497 -14.6085,22.65376 -15.3701,25.06864 -4.56948,14.60413 -7.4081,39.78773 -0.0691,49.5621 7.33888,9.65952 1.03853,29.89837 49.08744,24.37864 15.023873,-1.72491 16.062403,-12.07425 20.078033,-22.76873 C 90.821247,212.15159 73.512537,173.28382 69.981537,161.5544 Z"
       id="path4161"
       inkscape:connector-curvature="0" />
  </g>
</svg>
